<svg width="24" height="25" viewBox="0 0 24 25" fill="none" xmlns="http://www.w3.org/2000/svg">
<path fill-rule="evenodd" clip-rule="evenodd" d="M5.84029 10.3564C7.6276 14.2483 10.8081 17.3424 14.7619 19.019L14.7743 19.0243L15.5382 19.3648C16.5108 19.7981 17.654 19.4903 18.2776 18.6273L19.552 16.8635C19.6298 16.7558 19.6098 16.606 19.5063 16.5225L17.2816 14.7277C17.171 14.6385 17.0084 14.6593 16.9237 14.7734L16.0579 15.9418C15.8476 16.2256 15.4678 16.3242 15.1461 16.1786C12.1897 14.8406 9.81397 12.4649 8.47604 9.50852C8.33043 9.18676 8.42902 8.80701 8.71278 8.59673L9.88115 7.73087C9.99532 7.64626 10.0161 7.48364 9.92688 7.37304L8.13184 5.148C8.04841 5.04458 7.89866 5.0245 7.79093 5.10227L6.01764 6.38243C5.14885 7.00961 4.84289 8.16246 5.28635 9.13791L5.83969 10.3551C5.83989 10.3555 5.84009 10.3559 5.84029 10.3564ZM14.1699 20.3973C9.87392 18.5737 6.41856 15.2107 4.47651 10.981L4.47534 10.9784L3.92084 9.7587C3.18174 8.13295 3.69167 6.21154 5.13965 5.16623L6.91294 3.88607C7.66706 3.34166 8.71529 3.48227 9.29929 4.20616L11.0943 6.4312C11.7189 7.20537 11.5734 8.34377 10.7743 8.93601L10.1048 9.43216C11.2357 11.6266 13.0281 13.4189 15.2224 14.5499L15.7186 13.8803C16.3108 13.0812 17.4492 12.9357 18.2234 13.5603L20.4482 15.3551C21.1723 15.9392 21.3127 16.9879 20.7678 17.742L19.4935 19.5057C18.4541 20.9442 16.5487 21.4572 14.9277 20.7349L14.1699 20.3973Z" fill="#FF5D23"/>
</svg>
