<svg width="24" height="25" viewBox="0 0 24 25" fill="none" xmlns="http://www.w3.org/2000/svg">
<path fill-rule="evenodd" clip-rule="evenodd" d="M21.75 12.5C21.75 12.7724 21.6023 13.0233 21.3642 13.1556L19.0819 14.4236C14.5705 16.9299 9.81474 18.9687 4.88879 20.508L4.22371 20.7159C3.99598 20.787 3.74798 20.7456 3.55575 20.6043C3.36352 20.4629 3.25 20.2386 3.25 20L3.25 14.25C3.25 13.859 3.55041 13.5336 3.94019 13.5024L4.16752 13.4842C6.31898 13.3121 8.45387 12.9829 10.5552 12.4997C8.42436 12.0098 6.25902 11.6782 4.0769 11.5083L3.94175 11.4977C3.55131 11.4673 3.25 11.1416 3.25 10.75L3.25 5.00001C3.25 4.76142 3.36352 4.53706 3.55575 4.39574C3.74798 4.25441 3.99598 4.21298 4.22371 4.28415L4.88878 4.49198C9.81474 6.03134 14.5705 8.07008 19.0819 10.5764L21.3642 11.8444C21.6023 11.9767 21.75 12.2276 21.75 12.5ZM19.4557 12.5L18.3534 11.8877C14.0256 9.48333 9.46847 7.51801 4.75 6.02089L4.75 10.0596C7.68008 10.3238 10.5783 10.8702 13.4043 11.6912L13.7092 11.7798C14.0299 11.8729 14.2503 12.1668 14.25 12.5007C14.2497 12.8346 14.0287 13.1281 13.7078 13.2206L13.3173 13.3333C10.5188 14.1404 7.65003 14.6784 4.75 14.94L4.75 18.9791C9.46846 17.482 14.0256 15.5167 18.3534 13.1124L19.4557 12.5Z" fill="white"/>
</svg>
